<?xml version="1.0" encoding="UTF-8"?>
<svg id="Layer_2" data-name="Layer 2" xmlns="http://www.w3.org/2000/svg" xmlns:xlink="http://www.w3.org/1999/xlink" viewBox="0 0 550.62 540.19">
  <g id="Layer_1-2" data-name="Layer 1">
    <path fill="currentColor" d="M184.19,373.22c2.37-2.49,6.48-1.9,8.06,1.15l82.33,159.05.24.46c2,3.87,5.99,6.3,10.35,6.3h246.31c10.57,0,19.14-8.57,19.14-19.14V19.06c0-10.53-8.53-19.06-19.06-19.06h-3.27c-5.07,0-9.93,2.02-13.5,5.61l-163.91,164.59c-1.57,1.58-3.99,1.92-5.93.83L47.23,4.95C41.41,1.7,34.85,0,28.18,0h-1.14C12.11,0,0,12.11,0,27.04v497.55c0,8.61,6.98,15.59,15.59,15.59h1.23c5.22,0,10.22-2.14,13.82-5.92,2.14-2.25,4.29-4.49,6.43-6.74,49.04-51.44,98.08-102.87,147.12-154.31ZM492.38,66.57l-68.62,143.47c-1.01,2.11-3.59,2.93-5.64,1.79l-43.74-24.4c-1.74-.97-2.07-3.33-.66-4.74l116.9-117.38c.87-.87,2.29.13,1.76,1.24ZM355.27,205.41l52.48,29.28c1.87,1.04,2.61,3.36,1.68,5.29l-122.34,255.78c-.76,1.59-3.02,1.63-3.83.06l-74.35-143.63c-.81-1.57-.52-3.48.73-4.73l140.78-141.36c1.28-1.29,3.26-1.57,4.85-.68ZM27.07,55.23l148.53,286.97c.81,1.57.54,3.49-.69,4.77L32.13,495.98c-2.58,2.69-7.13.87-7.13-2.86V55.73c0-1.15,1.54-1.52,2.07-.5ZM48.92,34.52l277.53,154.81c1.74.97,2.07,3.33.66,4.74l-127.7,128.22c-1.94,1.95-5.21,1.44-6.48-1L45.98,37.38c-.97-1.88,1.09-3.88,2.94-2.85ZM520.62,515.19h-208.53c-3.05,0-5.05-3.18-3.73-5.93l122.31-255.72c1.24-2.6,4.43-3.61,6.95-2.21,25.22,14.01,50.44,28.02,75.67,42.04,7.62,4.23,12.34,12.26,12.34,20.98,0,65.28,0,130.56,0,195.84,0,.33-.03,2.1-5,5ZM519.59,268.43l-72.49-40.44c-1.87-1.04-2.61-3.36-1.68-5.29l74.33-155.41c1.42-2.97,5.88-1.96,5.88,1.33v196.26c0,3.1-3.33,5.05-6.03,3.54Z"/>
  </g>
</svg>